<svg xmlns="http://www.w3.org/2000/svg" xmlns:xlink="http://www.w3.org/1999/xlink" version="1.1" x="0px" y="0px" viewBox="0 0 69 86.25" style="enable-background:new 0 0 69 69;" xml:space="preserve"><g><path d="M65.11328,59.72652c0.55273,0,1-0.44775,1-1s-0.44727-1-1-1H3.4668c-0.55273,0-1,0.44775-1,1s0.44727,1,1,1H65.11328z"/><path d="M4.39063,51.40231h25.99609c0.32975,2.16824,2.28532,3.72253,4.51465,3.51611   c1.86035-0.17041,3.36523-1.65381,3.69238-3.51611h26.0166c1.31738,0,2.38965-1.07227,2.38965-2.39014V15.94234   c0-1.31787-1.07227-2.39014-2.38965-2.39014h-1.25977V12.8525c0-0.41797-0.25977-0.79199-0.65137-0.9375   c-9.3537-3.47327-18.83582-3.50989-28.19269-0.12317c-9.36115-3.39532-18.84766-3.35901-28.20184,0.11877   c-0.3916,0.146-0.65137,0.51953-0.65137,0.9375v0.7041h-1.2627C3.07227,13.55221,2,14.62447,2,15.94234v33.06982   C2,50.33004,3.07227,51.40231,4.39063,51.40231z M35.5,13.55367c8.58105-3.02979,17.27148-3.03076,25.85059,0   c0,7.20008,0,17.05498,0,31.20313C52.7627,41.8652,44.08008,41.86568,35.5,44.75631C35.5,30.49957,35.5,20.71972,35.5,13.55367z    M7.65332,13.54928c8.57715-3.03369,17.26465-3.03467,25.8457,0v31.20068c-8.5818-2.88469-17.26343-2.88485-25.8457,0V13.54928z    M4,15.94234c0-0.21875,0.17188-0.39014,0.39063-0.39014h1.2627v30.6123c0,0.695,0.69389,1.18021,1.34863,0.9375   c8.98975-3.34351,18.10895-3.34906,27.10297-0.01581c0.23486,0.10138,0.50073,0.11285,0.74469,0.02313   c9.00391-3.35645,18.13867-3.35645,27.15234,0c0.30762,0.11572,0.65039,0.07178,0.91895-0.11572   c0.26953-0.18701,0.42969-0.49365,0.42969-0.82129V15.55221h1.25977c0.21094,0,0.38965,0.17871,0.38965,0.39014v33.06982   c0,0.21143-0.17871,0.39014-0.38965,0.39014h-26.9502c-0.55273,0-1,0.44775-1,1v0.24023c0,1.18115-0.85254,2.18457-1.94434,2.28418   c-1.32981,0.1266-2.37598-0.91965-2.37598-2.14453v-0.37988c0-0.55225-0.44727-1-1-1H4.39063   C4.17188,49.40231,4,49.23092,4,49.01217V15.94234z"/><path d="M30.31738,28.92574c-6.46484-2.40332-13.01758-2.40332-19.48242,0c-0.51758,0.19287-0.78125,0.76855-0.58887,1.28613   c0.19336,0.51807,0.76855,0.78027,1.28613,0.58887c6.00195-2.23242,12.08594-2.23242,18.08789,0   c0.11523,0.04248,0.23242,0.06299,0.34863,0.06299c0.40527,0,0.78711-0.24902,0.9375-0.65186   C31.09863,29.6943,30.83496,29.11861,30.31738,28.92574z"/><path d="M30.31738,33.98629c-6.46484-2.40332-13.01758-2.40332-19.48242,0c-0.51758,0.19287-0.78125,0.76855-0.58887,1.28613   c0.19336,0.51855,0.76855,0.78174,1.28613,0.58887c6-2.23145,12.08789-2.23145,18.08789,0   c0.11523,0.04248,0.23242,0.06299,0.34863,0.06299c0.40625,0,0.78711-0.24902,0.9375-0.65186   C31.09863,34.75484,30.83496,34.17916,30.31738,33.98629z"/><path d="M10.61328,25.92525c0.26855,0.18555,0.61035,0.229,0.91895,0.11621c6-2.23145,12.08789-2.23145,18.08789,0   c0.11328,0.04199,0.23145,0.0625,0.34863,0.0625c0.20117,0,0.40039-0.06104,0.57031-0.17871   c0.26953-0.18701,0.42969-0.49365,0.42969-0.82129v-8.12158c0-0.41797-0.25977-0.7915-0.65137-0.9375   c-6.46484-2.40332-13.01758-2.40332-19.48242,0c-0.3916,0.146-0.65137,0.51953-0.65137,0.9375v8.12158   C10.18359,25.4316,10.34375,25.73824,10.61328,25.92525z M12.18359,17.68649c5.57227-1.91992,11.21289-1.91992,16.78516,0v6.01416   c-2.78809-0.89111-5.58984-1.33643-8.39258-1.33643s-5.60449,0.44531-8.39258,1.33643V17.68649z"/><path d="M38.41602,25.92525c0.26855,0.18555,0.61133,0.229,0.91895,0.11621c6-2.23145,12.08789-2.23145,18.08789,0   c0.11328,0.04199,0.23145,0.0625,0.34863,0.0625c0.20117,0,0.40039-0.06104,0.57031-0.17871   c0.26953-0.18701,0.42969-0.49365,0.42969-0.82129v-8.12158c0-0.41797-0.25977-0.7915-0.65137-0.9375   c-6.46484-2.40332-13.01758-2.40332-19.48242,0c-0.3916,0.146-0.65137,0.51953-0.65137,0.9375v8.12158   C37.98633,25.4316,38.14648,25.73824,38.41602,25.92525z M39.98633,17.68649c5.57227-1.91992,11.21289-1.91992,16.78516,0v6.01416   c-2.78809-0.89111-5.58984-1.33643-8.39258-1.33643s-5.60449,0.44531-8.39258,1.33643V17.68649z"/><path d="M29.62012,40.92184c0.11523,0.04248,0.23242,0.06299,0.34863,0.06299c0.40625,0,0.78711-0.24902,0.9375-0.65186   c0.19238-0.51758-0.07129-1.09326-0.58887-1.28613c-6.46484-2.40332-13.01758-2.40332-19.48242,0   c-0.51758,0.19287-0.78125,0.76855-0.58887,1.28613c0.19336,0.51855,0.76855,0.78125,1.28613,0.58887   C17.53223,38.69039,23.62012,38.69039,29.62012,40.92184z"/><path d="M58.12012,28.92574c-6.46484-2.40332-13.01758-2.40332-19.48242,0c-0.51758,0.19287-0.78125,0.76855-0.58887,1.28613   c0.19336,0.51807,0.76855,0.78027,1.28613,0.58887c6.00195-2.23242,12.08594-2.23242,18.08789,0   c0.11523,0.04248,0.23242,0.06299,0.34863,0.06299c0.40527,0,0.78711-0.24902,0.9375-0.65186   C58.90137,29.6943,58.6377,29.11861,58.12012,28.92574z"/><path d="M58.12012,33.98629c-6.46484-2.40332-13.01758-2.40332-19.48242,0c-0.51758,0.19287-0.78125,0.76855-0.58887,1.28613   c0.19336,0.51855,0.76855,0.78174,1.28613,0.58887c6-2.23145,12.08789-2.23145,18.08789,0   c0.11523,0.04248,0.23242,0.06299,0.34863,0.06299c0.40625,0,0.78711-0.24902,0.9375-0.65186   C58.90137,34.75484,58.6377,34.17916,58.12012,33.98629z"/><path d="M58.12012,39.04684c-6.46484-2.40332-13.01758-2.40332-19.48242,0c-0.51758,0.19287-0.78125,0.76855-0.58887,1.28613   c0.19336,0.51855,0.76855,0.78125,1.28613,0.58887c6-2.23145,12.08789-2.23145,18.08789,0   c0.11523,0.04248,0.23242,0.06299,0.34863,0.06299c0.40625,0,0.78711-0.24902,0.9375-0.65186   C58.90137,39.81539,58.6377,39.23971,58.12012,39.04684z"/></g></svg>