<svg xmlns="http://www.w3.org/2000/svg" xmlns:xlink="http://www.w3.org/1999/xlink" version="1.1" x="0px" y="0px" viewBox="0 0 32 40" enable-background="new 0 0 32 32" xml:space="preserve"><path d="M22.608,28.014h1.629c0.552,0,1-0.448,1-1V5.844c0-1.024-0.833-1.857-1.855-1.857H8.619c-1.023,0-1.856,0.833-1.856,1.857  v21.17c0,0.552,0.448,1,1,1h1.629c0.552,0,1-0.448,1-1c0-0.004-0.002-0.007-0.002-0.011s0.002-0.007,0.002-0.011  c0-0.36,0.293-0.652,0.653-0.652c0.359,0,0.651,0.292,0.651,0.652v0.021c0,0.552,0.448,1,1,1h1.652c0.552,0,1-0.448,1-1  c0-0.004-0.002-0.007-0.002-0.011s0.002-0.007,0.002-0.011c0-0.36,0.292-0.652,0.651-0.652s0.651,0.292,0.651,0.652v0.021  c0,0.552,0.448,1,1,1h1.652c0.552,0,1-0.448,1-1c0-0.004-0.002-0.007-0.002-0.011s0.002-0.007,0.002-0.011  c0-0.36,0.292-0.652,0.651-0.652c0.36,0,0.653,0.292,0.653,0.652v0.021C21.608,27.566,22.056,28.014,22.608,28.014z M20.955,24.34  c-1.112,0-2.063,0.69-2.456,1.674h-0.04C18.068,25.035,17.116,24.34,16,24.34c-1.112,0-2.063,0.69-2.456,1.674h-0.04  c-0.391-0.979-1.343-1.674-2.459-1.674c-0.976,0-1.821,0.536-2.282,1.329V5.986h14.475v19.676  C22.776,24.875,21.931,24.34,20.955,24.34z"/><path d="M16,9h-5c-0.552,0-1,0.448-1,1s0.448,1,1,1h5c0.552,0,1-0.448,1-1S16.552,9,16,9z"/><path d="M21,9h-1.102c-0.552,0-1,0.448-1,1s0.448,1,1,1H21c0.552,0,1-0.448,1-1S21.552,9,21,9z"/><path d="M16,13.18h-5c-0.552,0-1,0.448-1,1s0.448,1,1,1h5c0.552,0,1-0.448,1-1S16.552,13.18,16,13.18z"/><path d="M21,13.18h-1.102c-0.552,0-1,0.448-1,1s0.448,1,1,1H21c0.552,0,1-0.448,1-1S21.552,13.18,21,13.18z"/><path d="M21,19h-1.102c-0.552,0-1,0.448-1,1s0.448,1,1,1H21c0.552,0,1-0.448,1-1S21.552,19,21,19z"/><text x="0" y="47" fill="#000000" font-size="5px" font-weight="bold" font-family="'Helvetica Neue', Helvetica, Arial-Unicode, Arial, Sans-serif">Created by DO CO</text><text x="0" y="52" fill="#000000" font-size="5px" font-weight="bold" font-family="'Helvetica Neue', Helvetica, Arial-Unicode, Arial, Sans-serif">from the Noun Project</text></svg>