<svg xmlns="http://www.w3.org/2000/svg" xmlns:xlink="http://www.w3.org/1999/xlink" version="1.1" x="0px" y="0px" viewBox="0 0 100 125" style="enable-background:new 0 0 100 100;" xml:space="preserve"><path d="M8,83V17c0-1.657,1.342-3,3-3s3,1.343,3,3v63h6V68c0-1.657,1.342-3,3-3s3,1.343,3,3v12h6V65c0-1.657,1.342-3,3-3  s3,1.343,3,3v15h6V65c0-1.657,1.342-3,3-3s3,1.343,3,3v15h6V59c0-1.657,1.342-3,3-3s3,1.343,3,3v21h6V62c0-1.657,1.342-3,3-3  s3,1.343,3,3v18h6V53c0-1.657,1.342-3,3-3s3,1.343,3,3v27h3c1.658,0,3,1.343,3,3s-1.342,3-3,3H11C9.342,86,8,84.657,8,83z"/><path d="M86,41v-1.758L73.121,52.121c-1.014,1.014-2.599,1.167-3.785,0.375l-7.233-4.822l-10.304,7.726  c-1.014,0.766-2.408,0.803-3.463,0.097L41,50.605L24.664,61.496c-1.382,0.92-3.245,0.543-4.16-0.832  c-0.92-1.378-0.548-3.242,0.832-4.16l18-12c1.008-0.671,2.32-0.671,3.328,0l7.233,4.822l10.304-7.726  c1.014-0.765,2.408-0.801,3.463-0.097l6.955,4.636L81.758,35H80c-1.658,0-3-1.343-3-3s1.342-3,3-3h9c1.676,0,3,1.383,3,3v9  c0,1.657-1.342,3-3,3S86,42.657,86,41z"/></svg>